<svg xmlns="http://www.w3.org/2000/svg" version="1.2" viewBox="0 0 2917 2293" width="" height="5"><style>.s0{fill:#fdfdfc}.s1{fill:#262626}</style><g id="Background"><path id="Path 0" class="s0" d="M64.1 1269.8c-.1 3.9-.5 7.4-1.1 7.7-.7.3-1 23.2-1 65.5s.3 65.2 1 65.5c.6.3 1.1 3.8 1.2 7.8l.2 7.2c.6-10.8 1.1-14.4 1.6-15 .5-.5 1.2-24.8 1.6-54 .5-39.9.4-57.3-.6-70.5-.7-9.6-1.6-18.4-2.1-19.5-.5-1.3-.8.6-.8 5.3m2787.2 90c-.4 3.7-.8 21.5-.8 39.7s.5 37.3 1 42.5l.9 9.5c2.6-11.5 3-22.1 3.3-52.5.2-25.8-.1-39.8-.7-40.5-.6-.5-1-2-1-3.2 0-1.3-.4-2.3-.9-2.3s-1.3 3-1.8 6.8M2702 1757.1c-4.1 2-7.2 3.8-6.7 3.8.4.1 3.3-1 6.5-2.4 3.1-1.5 6.6-2.7 7.7-2.9s2-.8 2-1.5c0-.6-.4-1-1-1-.5.1-4.4 1.9-8.5 4"/><path id="Path 1" class="s1" d="M1398 78.6c-5.8.2-25.8.8-44.5 1.4s-43.9 1.7-56 2.6c-12.1.8-28.1 2.4-35.5 3.5s-16.4 3-20 4.3c-3.6 1.2-9.7 4.2-13.7 6.7-4 2.4-10.9 7.3-15.4 10.9s-12.1 10.6-16.8 15.5-11.6 13.5-15.3 19c-3.6 5.5-8.2 13.2-10.2 17-1.9 3.8-4.5 9.3-5.6 12-1.2 2.8-3 7.5-4 10.5-1.1 3-2.6 8.2-3.4 11.5s-2 9.8-2.6 14.5-1.7 11.9-2.6 16-2.9 11.3-4.6 16-4.4 11-6.1 14c-1.6 3-4.6 8-6.6 11s-6.1 8-9.1 11c-3 3.1-8.2 7.4-11.5 9.6-3.3 2.3-10 6.2-15 8.6-5 2.5-15.1 6.6-22.5 9.1s-16.9 5.3-21 6.2c-4.1 1-14.7 3.7-23.5 6.1-8.8 2.3-21 5.6-27 7.4-6 1.7-15.7 4.6-21.5 6.5-5.8 1.8-17.9 5.7-27 8.6s-23.9 8.1-33 11.7c-9.1 3.5-27.1 10.9-40 16.4s-26.8 11.6-30.8 13.4c-3.9 1.9-7.4 3.4-7.7 3.4s-3.5 1.4-7.3 3.1c-3.7 1.7-15.2 7.3-25.7 12.4s-24 12-30 15.3c-6 3.2-13.3 7.1-16 8.7-2.8 1.5-10.2 5.7-16.5 9.3s-19.6 11.3-29.5 17.2-23 13.8-29 17.5-14.4 9.1-18.5 11.8c-4.1 2.8-13.6 9.6-21 15.1s-19.1 14.5-26 20-21.7 17.9-33 27.5c-11.3 9.7-29.8 26.8-41.1 38.1s-27.5 28.4-36 38-18.8 21.6-23 26.5c-4.1 5-12 14.6-17.6 21.5-5.5 6.9-15.8 20.4-22.8 30-7.1 9.6-15.8 21.3-19.3 26-3.6 4.7-10 12.8-14.3 18-4.2 5.2-9.4 11.4-11.5 13.7-2.2 2.3-4.7 4.2-5.6 4.3-1 0-2.1-.8-2.4-1.7-.3-1-1.2-4.7-1.9-8.3-.8-3.6-2.1-15.3-2.9-26s-2-34.4-2.6-52.5-1.5-40.2-2-49-1.6-28.6-2.5-44c-.8-15.4-1.7-29.4-2-31-.2-1.6-.7-7-1-12s-1.2-14.2-2-20.5-2-14-2.6-17-1.9-8.4-2.8-12c-1-3.6-3.7-10.6-6-15.5s-5.9-11.2-7.9-14c-2-2.7-6.8-8.3-10.7-12.3-3.8-4.1-8.8-8.3-11-9.4-2.2-1.2-6.7-2.3-10-2.6-3.6-.2-9.3.2-14.5 1.3-4.7 1-11.9 2.8-16 4.2-4.1 1.3-12.7 5-19 8.1-9.6 4.8-12.7 6.9-19 13.2-4.1 4.1-10.9 12-15 17.5s-10.5 14.9-14.3 21-9.9 17.3-13.7 25c-3.7 7.7-8.2 18-10 23-1.7 5-4.4 14.4-6 21s-4 18.5-5.4 26.5-3.4 20.8-4.5 28.5-3.1 23.2-4.5 34.5-3.4 29-4.6 39.5c-1.1 10.5-2.5 22.4-3 26.5s-1.2 10.6-1.5 14.5-.8 7.9-1 9-1.1 8.8-1.9 17c-.9 8.3-2 19-2.6 24-.5 5-1.2 10.8-1.5 13s-.9 8.3-1.5 13.5c-.5 5.2-1.7 15.4-2.4 22.5-.8 7.1-2.6 23.6-4 36.5s-3 26.9-3.6 31c-.5 4.1-1.2 10.6-1.6 14.5-.3 3.9-.8 7.7-.9 8.5-.2.8-.6 4.6-1 8.5s-1.3 11.7-2 17.5l-1.3 10.5c-28.2 53.5-38.5 73-41.1 78-2.7 5-7.4 14-10.6 20s-7.9 15-10.5 20-6.8 12.8-9.2 17.5c-2.5 4.7-7.6 14.3-11.3 21.5l-6.8 13c1.8 105 2.1 136 1.8 136.5s0 27.7.6 60.3c.6 32.5 1.1 59.9 1.1 60.7s.6 40.2 1.3 87.5c.8 47.3 1.5 97.5 1.5 111.5l.1 25.5c13.1 21.7 20.4 33.4 24.7 40s12 17.8 17.2 25 13.8 18.2 19.1 24.5 12.5 14.2 16 17.5 9.3 8.6 12.9 11.6c3.6 3.1 10.1 8.1 14.5 11.1s11.8 7.8 16.5 10.6 12.8 7.1 18 9.5c5.2 2.5 12 5.5 15 6.6s8.7 3 12.5 4.1 11.9 3.1 18 4.5c6.1 1.3 17.3 3.3 25 4.4s18.3 2.5 23.5 3.1 21.4 1.5 36 2 31.4 1.6 37.5 2.5 13.7 2.3 17 3.2c3.3.8 7.6 2.3 9.5 3.3s9.4 7.9 16.6 15.2 19.3 20.3 27 28.8 18.6 20.9 24.4 27.5c5.7 6.6 13.2 15.2 16.5 19 3.4 3.8 10.4 12.2 15.6 18.5s14.2 17.6 20 25 13.5 17.8 17.1 23c3.5 5.2 6.7 10.4 7.1 11.5s1.5 2.5 2.6 3 9.7 5.8 19.3 11.7c9.5 5.8 22.7 13.6 29.3 17.3s14.9 8.3 18.5 10.2c3.6 2 8.3 4.6 10.5 5.8 2.2 1.3 16.6 8.6 32 16.3s30.9 15.3 34.5 17c3.6 1.6 9.4 4.3 13 6 3.6 1.6 10 4.6 14.3 6.6 4.2 2 7.9 3.6 8.2 3.6s3.5 1.4 7.3 3.1c3.7 1.7 8.3 3.7 10.2 4.5 1.9.9 4.4 1.9 5.5 2.4s5.4 2.3 9.5 4 8.9 3.7 10.5 4.4c1.6.8 8.9 3.6 16 6.4s17.7 7 23.5 9.3c5.8 2.2 15.5 5.9 21.5 8.1s18.4 6.6 27.5 9.8 20.5 7.2 25.5 8.8 14.6 4.8 21.5 7 21.5 6.8 32.5 10.1 29 8.4 40 11.4 27.2 7.3 36 9.6c8.8 2.2 20.7 5.1 26.5 6.5 5.8 1.3 14.8 3.4 20 4.6 5.2 1.1 11.3 2.5 13.5 3.1 2.2.5 6 1.3 8.5 1.8l14.5 2.9c5.5 1.2 19.7 3.9 31.5 6.1s27.3 4.9 34.5 6.1c7.2 1.1 15.7 2.5 19 3 3.3.6 13.9 2.1 23.5 3.5 9.6 1.3 23.1 3.1 30 3.9 6.9.9 17 2 22.5 2.7 5.5.6 16.5 1.7 24.5 2.5 8 .7 26.9 2.2 42 3.3s39.2 2.5 53.5 3.2 46.7 1.3 72 1.3 56.8-.6 70-1.3c13.2-.6 33.9-1.8 46-2.6s29.4-2.2 38.5-3 20.5-2 25.5-2.5c5-.6 16.7-1.9 26-3 9.3-1.2 24.9-3.2 34.5-4.5 9.6-1.4 21.5-3.2 26.5-4s14.4-2.3 21-3.4 15.8-2.7 20.5-3.6 10.8-2 13.5-2.5c2.8-.5 11.5-2.2 19.5-3.8 8-1.7 21-4.4 29-6.1 8-1.8 18.3-4.1 23-5.2s15.5-3.8 24-5.9 20.9-5.2 27.5-7c6.6-1.7 21.2-5.8 32.5-9s27-7.9 35-10.3c8-2.5 20.1-6.3 27-8.5 6.9-2.3 19.7-6.6 28.5-9.6s19.8-6.8 24.5-8.4c4.7-1.7 17.9-6.6 29.5-11 11.6-4.5 26.2-10.1 32.5-12.5 6.3-2.5 23.2-9.5 37.5-15.5 14.3-6.1 28.7-12.2 32-13.7s11.2-5.1 17.5-8 14.7-6.7 18.5-8.5 22.3-10.8 41-20.1c18.7-9.2 40.1-20 47.5-23.9 11-5.8 14.9-8.5 20.8-14.3 4.1-4 21.2-21.6 38-39.2 16.9-17.6 33.4-35.2 36.8-39 3.3-3.8 8.4-10.4 11.4-14.5s9.8-12.9 15.1-19.5 14.1-16.7 19.6-22.4c5.4-5.8 14.5-14.5 20.3-19.5 5.8-4.9 15.2-12.1 21-15.9s15.4-9.3 21.5-12.2 15.4-6.7 20.8-8.4c5.3-1.7 15.2-4.2 22-5.5 6.7-1.4 19-3.2 27.2-4 8.3-.9 22.4-2.3 31.5-3.1 9.1-.9 21.2-2.2 27-3.1 5.8-.8 13.2-1.9 16.5-2.5s8.5-1.7 11.5-2.6c3-.8 6.4-1.9 7.5-2.3 1.1-.5 6.3-2.3 11.5-4.1 5.2-1.7 13.6-5.1 18.5-7.5s9.3-4.4 9.8-4.4c.4 0 4.8-2.5 9.7-5.5s9.3-5.5 9.8-5.5c.4 0 5-3.3 10.2-7.2s14-10.8 19.5-15.2 16.3-14.3 24.1-22.1c7.8-7.7 17.5-18.5 21.5-24 4.1-5.5 9.5-13.8 12.1-18.5 2.5-4.7 5.8-12 7.2-16.2 1.4-4.3 2.9-9.9 3.2-12.5.4-2.7 1.2-5.5 1.9-6.3s1.5-3.3 1.8-5.5 1.5-10.3 2.6-18 2.7-20.3 3.5-28c.9-7.7 2-18.7 2.6-24.5s1.5-17.2 2-25.5c.6-8.2 1.8-28.7 2.7-45.5 1.3-24.2 1.7-49.8 1.7-124.5.1-51.7-.3-102.8-.7-113.5s-1-23.8-1.3-29c-.2-5.2-1.1-19.2-2-31-.8-11.8-2.2-26.5-3-32.5-.9-6-3.3-17.7-5.4-26-2.1-8.2-5.8-20.6-8.3-27.5-2.4-6.9-5.7-15.2-7.2-18.5-1.6-3.3-7-13.2-12-22-5.1-8.8-12.7-21.8-17-29-4.3-7.1-9.9-17-12.5-22-2.5-5-6.1-12.6-7.8-17s-4.1-10.7-5.3-14c-1.1-3.3-2.7-8-3.4-10.5s-2.2-7.6-3.3-11.5-3-11.5-4.2-17-2.8-14-3.5-19-2.1-14-3-20c-.8-6-2.7-20-4.1-31-1.3-11-3.1-25.2-3.8-31.5-.8-6.3-3.5-29.3-6-51-2.6-21.7-5.1-43.8-5.7-49-.5-5.2-1.6-15.8-2.4-23.5s-1.9-18-2.5-23-2-15.7-3-24c-1.1-8.2-2.4-17.9-3-21.5-.5-3.6-2.1-12.4-3.5-19.5s-4.2-18.5-6.1-25.2c-1.8-6.8-5.2-17-7.4-22.8s-5.6-13.9-7.5-18-3.5-7.7-3.5-8-3.2-6.9-7.1-14.7c-3.9-7.9-8.5-16.8-10.2-19.8s-5.5-9.5-8.5-14.5c-3-4.9-7.7-12.4-10.5-16.5s-7.8-11.1-11.3-15.5c-3.4-4.4-8.2-9.9-10.6-12.1-2.3-2.3-7-5.7-10.3-7.6s-9.2-4.6-13-6.1-10.6-3.5-15-4.3c-7.4-1.5-8.5-1.5-14.5 0-3.6.9-9.9 3.6-14 5.9-4.4 2.5-10.5 7.2-15 11.7-4.3 4.4-8.8 10-10.7 13.5-1.7 3.3-4.1 8.9-5.2 12.5-1.2 3.6-2.8 9.9-3.7 14-.8 4.1-2.1 12.2-2.9 18s-2.1 18.8-2.9 29-1.8 23-2.1 28.5-1.2 22.1-2 37-1.9 34.9-2.5 44.5-1.5 24.9-2 34c-.6 9.1-1.5 21.2-2 27s-1.6 18.6-2.4 28.5c-.9 9.9-1.6 19.5-1.6 21.3 0 2.4-.4 3.2-1.8 3.2-.9 0-4.6-3-8-6.8-3.5-3.7-10.4-11.9-15.3-18.2s-12.8-17.1-17.7-24c-4.8-6.9-11.6-16.3-15.2-21-3.5-4.7-11.8-15.2-18.4-23.5-6.6-8.2-15.6-19.3-20-24.5s-14.3-16.7-22-25.5-22.2-24.1-32.1-34c-9.9-10-24.3-23.5-32-30.1s-18.9-16-25-20.9c-6.1-5-14.2-11.6-18-14.6-3.8-3.1-11.9-9.4-18-14-6.1-4.7-17.8-13.4-26-19.4-8.3-6-21.3-15-29-20.1-7.7-5-20.8-13.1-29-18.1-8.3-4.9-20.2-11.9-26.5-15.5s-15.8-8.9-21-11.7c-5.2-2.9-20.1-10.6-33-17.1s-28-13.7-33.5-16-20.1-8.1-32.5-12.7c-12.4-4.7-23.6-8.9-25-9.3-1.4-.5-8.3-2.9-15.5-5.5-7.2-2.5-24.3-8.4-38-13-13.8-4.6-31.8-10.5-40-13-8.3-2.5-19.5-5.9-25-7.6-5.5-1.8-16.8-5.4-25-8.1-8.3-2.8-20.2-7-26.5-9.3-6.3-2.4-16.2-6.2-22-8.5s-15.9-6.8-22.5-10c-8.5-4-13.7-7.3-17.9-11.1-3.2-3-7.8-8.5-10.1-12.4-2.4-3.9-5.3-9.9-6.5-13.5-1.4-4.2-2.7-11.8-3.5-21.5-.7-8.2-2-18.4-2.9-22.5s-2.6-11.1-4-15.5c-1.3-4.4-3.5-10.7-4.9-14s-3.7-8.2-5.2-11c-1.5-2.7-5.3-8.8-8.4-13.4-3.1-4.7-9.2-12.8-13.7-18-4.4-5.3-12.3-13.2-17.6-17.6-5.2-4.4-13.5-10.7-18.4-13.9-4.9-3.3-12.9-7.9-17.9-10.2-6.7-3.1-11.6-4.6-19-5.8-5.5-.9-16.1-2-23.5-2.6s-27.9-1.7-45.5-2.6c-18.8-.8-60-1.6-100-1.8-37.4-.2-72.7-.2-78.5 0"/><path id="Path 2" class="s0" d="M1368.5 151c-9.3.4-21.5 1.3-27 2-5.5.6-14.5 2.2-20 3.6-5.5 1.3-13.6 4.2-18 6.4s-12.2 7-17.4 10.7c-5.2 3.8-13.9 11.1-19.4 16.3s-11.6 12-13.7 15c-2 3-4.6 7.8-5.7 10.5s-3 9.3-4.2 14.5c-1.1 5.2-2.8 15.8-3.8 23.5-1.4 11.4-1.7 22.5-1.8 60 0 40.4.2 47.3 1.9 57 1 6.1 3.1 14.6 4.7 19 1.7 4.4 4 9.8 5.4 12 1.3 2.2 4.7 6.8 7.7 10.2 2.9 3.5 9.6 10.2 14.8 15 5.2 4.7 16.5 14.5 25 21.6s23.2 18.7 32.5 25.7 25.1 18.1 35 24.7c9.9 6.5 24.1 15.6 31.5 20 7.4 4.5 19.1 10.9 26 14.2 9.4 4.6 14.3 6.4 20 7.3 5.6.8 10 .8 17.5-.1 5.5-.6 13.8-2.3 18.5-3.7 4.7-1.5 12.3-4.4 17-6.7 4.7-2.2 14.1-7.4 21-11.5s19.7-12.4 28.5-18.5c8.8-6 22.1-15.5 29.5-21.1 7.4-5.5 18.7-14.3 25-19.5s16-13.6 21.5-18.7 14-13.8 19-19.4 11.6-13.8 14.8-18.3c3.3-4.5 7.6-11.8 9.7-16.2 2.2-4.4 5-11.8 6.3-16.5 1.4-4.7 3.3-13.7 4.2-20 1.3-8.2 1.8-17.2 1.8-31.5-.1-11.7-.8-26-1.7-34.5-.9-8-2.3-18.1-3.1-22.5s-1.9-10.5-2.5-13.5c-.7-3-1.9-8-2.7-11s-2.6-8.9-4-13-3.9-10.2-5.6-13.5c-1.6-3.3-5.2-9.1-8.1-12.9-2.8-3.8-7.6-9.2-10.6-11.9-3-2.8-8.7-7.2-12.5-9.9-3.8-2.8-10-6.5-13.8-8.4-3.7-1.9-9.1-4.3-12-5.3-2.8-1.1-7.9-2.7-11.2-3.5s-10.5-2.2-16-3c-5.5-.9-18.3-2.3-28.5-3.2-13.9-1.1-35.8-1.6-88.5-1.9-38.5-.2-77.7.1-87 .5m-231 197.2c-2.2.5-12.1 3-22 5.5-9.9 2.4-24.5 6.2-32.5 8.4s-21.9 6.3-31 9.1c-9.1 2.7-18.5 5.6-21 6.3s-10.4 3.1-17.5 5.3-18.2 5.7-24.5 7.7-15.8 5-21 6.7-14.9 5-21.5 7.3c-6.6 2.4-13.1 4.8-14.5 5.4s-10.1 4-19.5 7.7c-9.4 3.6-22.9 9.1-30 12.1-7.1 3.1-16.1 7-20 8.8-3.9 1.7-9.5 4.2-12.5 5.6-3 1.3-14.7 6.9-26 12.5s-30.6 15.8-43 22.6c-12.4 6.9-28.1 15.7-35 19.8-6.9 4-17.5 10.5-23.5 14.3-6 3.9-17.1 11.6-24.5 17.3-7.4 5.6-19.6 15.3-27 21.6-7.5 6.2-18.1 15.2-23.5 19.9-5.5 4.8-19.7 17.6-31.5 28.6-11.8 10.9-32 31.1-44.9 44.8-12.8 13.8-29 31.5-35.8 39.5-6.9 8-16.7 19.7-21.7 26-5.1 6.3-12.4 16-16.3 21.5s-10.4 15.2-14.5 21.5-12.7 20-19 30.5-12.7 21.3-14.3 24c-1.5 2.8-6.1 11.1-10.2 18.5s-11 20.7-15.3 29.5-11.3 24.3-15.5 34.5-8 19.4-8.5 20.5-3.6 9-6.9 17.5c-3.2 8.5-6.6 17.8-7.6 20.5-.9 2.8-3.7 10.9-6.2 18s-5.8 17.3-7.4 22.5c-1.7 5.2-4.9 17.1-7.3 26.5-2.4 9.3-5.4 21.5-6.6 27s-2.6 11.3-3 13c-.5 1.7-3 13.3-5.4 26-2.5 12.7-5 25.3-5.6 28-.6 2.8-2.2 11.8-3.5 20-1.3 8.3-2.9 18.8-3.5 23.5s-1.5 12.1-2 16.5-1.1 10.7-1.4 14c-.4 3.3-.8 8.9-1.1 12.5s-.7 9.4-1 13c-.2 3.6-1 22.5-1.7 42-.9 28.2-.9 43.1 0 72.5.7 20.3 1.7 42.2 2.2 48.5s1.4 17.6 2 25c.5 7.4 1.5 17.8 2 23 .6 5.2 1.8 15.3 2.6 22.5s1.9 15.7 2.4 19 1.6 10.7 2.5 16.5 2.5 15 3.6 20.5 4.3 17.7 7 27c2.8 9.3 8 25.8 11.6 36.5s8.9 25.8 11.8 33.5 7.4 19.2 10 25.5 6.1 14.7 7.8 18.5 7.5 15.8 12.8 26.5c5.4 10.7 12.8 25.1 16.7 32 3.8 6.9 10.2 17.9 14.2 24.5s10.4 16.7 14.3 22.5 12.3 17.5 18.6 26 15.7 20.9 20.9 27.5c5.3 6.6 14.3 17.6 20.1 24.5 5.8 6.8 19.8 21.8 31.1 33.4 11.3 11.5 25 25 30.6 30 5.5 5 20.1 17.2 32.5 27 12.3 9.9 26.4 21.2 31.4 25.1s12.1 9.6 16 12.6c3.9 3.1 11.7 8.7 17.5 12.6 5.8 3.8 12.3 8.1 14.5 9.5s9.9 5.9 17 10 18 10.2 24 13.5c6 3.4 18.2 9.7 27 14.1s19.1 9.5 23 11.2c3.9 1.8 9.7 4.5 13 6s13.2 5.7 22 9.4 16.9 7.1 18 7.6 10.5 4.3 21 8.3c10.5 4.1 22.4 8.7 26.5 10.2s8.4 3.1 9.5 3.5c1.1.5 7.2 2.6 13.5 4.8s15.8 5.4 21 7c5.2 1.7 16.2 5.1 24.5 7.5 8.2 2.5 25.4 7.5 38 11.1s24.8 6.9 27 7.5c2.2.5 14.8 3.7 28 7.1 13.2 3.3 30.1 7.2 37.5 8.6s17.8 3.2 23 4l26 4c9.1 1.4 21.2 3.2 27 4s15.7 2.1 22 2.9c6.3.9 16.9 2.2 23.5 3.1 6.6.8 17.4 2.1 24 2.9s19.7 2.1 29 2.9 22.4 1.8 29 2.1c6.6.4 14.2.9 17 1.1 2.7.2 12.9.7 22.5 1.2 9.6.4 56.2.7 103.5.7s97.9-.3 112.5-.7 35.5-1.2 46.5-1.8c11-.5 29-1.4 40-2s27-1.5 35.5-2.1c8.5-.5 21.3-1.3 28.5-1.9 7.2-.5 20.9-1.6 30.5-2.4 9.6-.9 23.6-2.2 31-3s18.7-2.2 25-3 21-3.3 32.5-5.5 26.4-5.1 33-6.5 14.9-3.2 18.5-4 9.9-2.2 14-3c4.1-.9 14.9-3.5 24-5.7s17.6-4.4 19-4.9 10.2-3 19.5-5.5c9.3-2.6 20.6-5.8 25-7.2s15.2-4.9 24-7.8 19.4-6 23.5-7c4.1-.9 10.9-2.8 15-4.2s14.5-5.4 23-9 19.8-8.5 25-10.8c5.2-2.4 12.7-5.7 16.5-7.5 3.8-1.7 11.1-5 16-7.3s21.6-10.4 37-18.2c15.4-7.7 37.4-19.4 49-25.9 11.6-6.6 29.1-16.9 39-22.9 9.9-6.1 25.7-16.1 35-22.3s23.3-16.3 31-22.5 18.5-15.1 24-19.8 16.1-14 23.5-20.6 21.3-19.9 31-29.5c9.6-9.6 23.1-24.4 30-32.9 6.9-8.4 17-21.2 22.5-28.5 5.5-7.2 10.7-14.1 11.5-15.3.8-1.1 6.1-8.6 11.7-16.5 5.5-7.8 13.7-19.9 18.1-26.8s10.5-17 13.7-22.5 11.3-20.8 18.1-34 15.3-30.5 18.9-38.5c3.7-8 9.5-21.5 12.9-30 3.5-8.5 8.1-20.9 10.3-27.5 2.3-6.6 6.1-18.5 8.6-26.5s4.7-15.4 5-16.5 1.4-5.2 2.5-9 3.9-14 6.1-22.5 5.1-20.7 6.5-27 3.4-17.1 4.5-24 2.7-19 3.5-27c.9-8 2-19.9 2.6-26.5s1.7-27.1 2.5-45.5 1.5-40.7 1.5-49.5-.7-30.6-1.5-48.5c-.9-17.9-2.2-40.6-3-50.5s-1.9-23.2-2.5-29.5-1.7-17.3-2.5-24.5c-.9-7.2-2.4-18.8-3.5-26s-2.6-16.4-3.4-20.5-3.5-16.7-6-28-7.3-31.3-10.6-44.5c-3.4-13.2-7.9-30.3-10.1-38-2.1-7.7-5.3-18.5-7-24S2528 963 2527 960s-4.3-12-7.3-20-7.9-21-11-29c-3-8-8.6-22.1-12.5-31.5-3.8-9.4-9.5-22.6-12.6-29.5s-9.1-18.8-13.3-26.5-14.1-25-22.1-38.5-18.8-31-24-39-13.4-19.7-18.2-26c-4.9-6.3-15-18.9-22.6-28-7.5-9.1-17.1-20.3-21.3-25-4.1-4.7-14.8-16.4-23.7-26s-22.9-23.6-31-31.1c-8.2-7.5-21.7-19.5-29.9-26.5-8.3-7.1-22.7-19-32-26.5-9.3-7.4-21.3-16.7-26.5-20.5-5.2-3.9-14.2-10.2-20-14.1s-17.9-11.5-27-17-23.3-13.8-31.5-18.5c-8.3-4.7-20.4-11.5-27-15-6.6-3.6-20.6-10.9-31-16.1s-21.9-10.8-25.5-12.5c-3.6-1.6-10.8-4.8-16-7s-16.7-6.9-25.5-10.5c-8.8-3.5-21.2-8.3-27.5-10.6s-13.1-4.8-15-5.6c-1.9-.7-6.7-2.5-10.5-3.8-3.8-1.4-10.8-3.9-15.5-5.6-4.7-1.6-15.9-5.4-25-8.4s-20.1-6.6-24.5-8c-4.4-1.3-11.8-3.6-16.5-5-4.7-1.5-15-4.6-23-7-8-2.5-17.7-5.4-21.5-6.5-3.8-1.2-13.3-3.9-21-6.2-7.7-2.2-16.7-4.7-20-5.6s-7.1-2-8.5-2.4c-1.4-.5-5.7-1.6-9.5-2.5s-8.8-1.5-11-1.3c-3.5.3-4.2.8-6.1 4.3-1.3 2.4-2.5 6.6-2.8 10.5-.3 3.6-1.8 10.8-3.4 16s-5.4 15.8-8.4 23.5c-3.1 7.7-7.1 16.9-9 20.5s-6.1 10.1-9.3 14.5-10.4 12.5-15.9 17.9c-5.6 5.5-15.1 14-21.1 19.1-6 5-15.3 12.5-20.5 16.6-5.2 4.2-20.8 16-34.5 26.4-13.8 10.4-33.1 24.8-43 32s-24.8 17.7-33 23.2c-8.3 5.5-19 12.5-24 15.5s-13.3 7.8-18.5 10.6-12.9 6.4-17 8.1-11.1 3.8-15.5 4.8c-6.5 1.4-12.6 1.8-32.5 1.8-20.1 0-25.5-.3-30-1.7-3-.9-10.5-4.2-16.5-7.4-6-3.1-16.2-8.9-22.5-12.7-6.3-3.9-20.3-12.9-31-20-10.7-7.2-27.2-18.5-36.5-25.1s-27.1-19.7-39.5-29c-12.4-9.4-28.1-21.5-35-27s-19.3-15.9-27.5-23.1c-8.3-7.3-18.3-16.8-22.4-21.1s-9.9-11.3-13-15.4c-3-4.1-7.2-10.6-9.2-14.5s-5.2-11-7.2-16c-1.9-4.9-4.6-12.4-6-16.5s-3-10-3.6-13-1.3-8-1.6-11-1.4-7-2.5-8.7c-1.4-2.3-2.7-3.3-4.3-3.2-1.2.1-4 .5-6.2 1.1M304.9 506.3c-2 1.7-6 6.6-9 10.7-3.1 4.1-7.1 10.2-9.1 13.5s-5.2 9.3-7.2 13.3c-2 3.9-4.9 10.5-6.5 14.5-1.6 3.9-4.3 11.2-5.9 16.2-1.7 5-4.2 13-5.6 18-1.3 5-3.6 14.4-5 21s-3.2 16.3-4 21.5c-.9 5.2-2.2 14.2-3 20-.9 5.8-2.2 16.1-3 23-.9 6.9-2.2 19.9-3.1 29-.8 9.1-1.9 21.7-2.5 28-.5 6.3-1.2 15.8-1.5 21-.2 5.2-.9 16.7-1.5 25.5-.5 8.8-1.2 22.5-1.4 30.5-.3 8-.8 29.1-1.2 47-.4 21.3-.2 36.4.5 43.8.7 7.3 1.8 12.6 3.1 15.2 1.1 2.3 3.4 4.8 5.3 5.7 2.5 1.4 5.8 1.8 15.7 1.8 11.3 0 13.2-.3 19.5-2.7 3.9-1.5 10.3-4.8 14.3-7.3 3.9-2.5 16-11.7 26.7-20.5 11.9-9.7 19.5-16.7 19.5-17.7s-.5-9-1-17.8-1.4-23.6-2-33c-.6-9.3-1.7-28.2-2.5-42-.8-13.7-2.1-36.9-3-51.5-.8-14.6-1.7-28.5-2-31-.2-2.5-.7-9.9-1-16.5s-.8-14-1-16.5c-.3-2.5-1.2-16.4-2-31s-1.9-33.5-2.5-42c-.5-8.5-1.6-23.4-2.4-33-.9-9.6-2.2-22.7-3.1-29-.8-6.3-2.1-14.9-2.9-19-.7-4.1-1.8-8.5-2.5-9.7-.6-1.3-1.7-2.3-2.4-2.3s-2.9 1.5-4.8 3.3m2292.2 2.5c-.5.9-1.4 5.5-2 10.2s-1.5 12.8-2.1 18c-.5 5.2-1.4 15.8-2 23.5s-1.3 15.1-1.5 16.5-.7 7.2-1 13-.8 12.1-1.1 14c-.2 1.9-1.1 14.1-1.9 27-.9 12.9-2.2 34.5-3 48-.9 13.5-2 33.5-2.5 44.5s-1.2 23.4-1.5 27.5-1.2 28-2.1 53c-.9 25.6-1.3 51.4-.9 59 .4 7.4 1.1 16.9 1.6 21s1.9 9.4 2.9 11.8c1.4 2.8 3.4 5 6.3 6.7 2.3 1.3 8 3.8 12.7 5.4 4.7 1.7 12.1 3.9 16.5 5.1 4.4 1.1 14.8 3.1 23 4.4 8.3 1.3 19.6 3.1 25.3 4 5.6.9 11.3 1.6 12.7 1.6h2.5c0-22.9-.5-43-1-59.5s-1.5-37.6-2.1-47c-.6-9.3-1.9-28.2-3-42-1-13.7-2.3-30.4-2.9-37s-1.4-15.8-2-20.5c-.5-4.7-1.2-11-1.5-14s-1.5-12.5-2.6-21-2.6-20.2-3.5-26c-.8-5.8-2.4-16.1-3.5-23s-2.7-16.5-3.5-21.5c-.9-5-2.7-14.6-4.1-21.5-1.3-6.9-3.3-15.6-4.4-19.5-1-3.8-4.1-11.5-6.8-17s-7.1-13.4-9.8-17.5-6.9-9.7-9.3-12.5c-2.4-2.7-6.8-7-9.7-9.5-3-2.5-6.8-5-8.4-5.7-2.6-1-3.1-1-3.8.5M284.5 984.1c-4.9 1-13 3-18 4.4-4.9 1.4-15.3 5.1-23 8.2s-17.4 7.2-21.5 9.2c-4.1 2.1-10.6 5.7-14.5 8.2-3.8 2.5-11 7.9-16 12.1-4.9 4.1-13.9 12.6-19.9 18.9-5.9 6.3-13.4 15.2-16.5 19.9s-7.8 12.3-10.3 17c-2.6 4.7-6.6 13.2-8.8 19-2.3 5.8-5 14.3-6 19s-2.3 13.9-3 20.5c-.6 6.6-1.3 14.5-1.5 17.5s-.9 27.1-1.6 53.5c-1 38-1 67.2 0 140 .7 50.6 1.4 100.5 1.7 111 .2 10.5.8 31.6 1.4 47s1.8 35.7 2.6 45 2.1 20.8 2.9 25.5 2.6 12.4 4 17.3c1.4 4.8 4.4 12.6 6.7 17.5 2.3 4.8 6.2 12.1 8.7 16.2 2.4 4.1 7.9 12 12 17.5 4.2 5.5 12.5 15 18.6 21 6.2 6.2 14.7 13.4 19.5 16.6 4.7 3.1 13.2 8.1 19 11.2 5.8 3 15.8 7.5 22.3 10.1 6.4 2.5 15 5.5 19 6.6 3.9 1.1 11.9 2.9 17.7 4s15.7 2.7 22 3.6c6.3.8 17.6 1.5 25 1.6 7.4 0 15.4-.5 17.8-1.1 2.8-.7 4.8-2 5.9-3.8 1.3-2.2 1.5-3.9.9-7.8-.4-2.7-5.4-19-11.1-36s-14.2-42.2-19-56c-4.8-13.7-10.5-30.8-12.7-38s-6.1-20.9-8.8-30.5c-2.6-9.6-6.4-24-8.4-32-1.9-8-4.3-17.9-5.2-22s-2-9.5-2.5-12c-.6-2.5-2-10.3-3.3-17.5-1.4-7.2-2.9-16.8-3.5-21.5-.5-4.7-1.3-11-1.5-14-.3-3-.8-9.3-1.2-14-.3-4.7-.8-9.8-.9-11.5-.2-1.7-.7-12.5-1.2-24-.4-11.5-.8-42.8-.7-69.5 0-29.2.5-54.5 1.3-63.5.7-8.2 1.4-17.5 1.6-20.5.3-3 .9-10.7 1.5-17 .5-6.3 1.4-16.5 2-22.5s1.7-16.4 2.5-23 1.9-15.8 2.5-20.5 2-13.9 3-20.5c1.1-6.6 2.6-15.8 3.5-20.5s3.3-18.8 5.5-31.5c2.1-12.7 4.8-29.3 5.9-37 1.2-7.7 2.8-19.6 3.6-26.5 1-9 1.1-13.9.4-17.5-.5-2.7-1.6-6-2.4-7.2-1.1-1.8-2.4-2.3-5.2-2.2-2.1 0-7.8.9-12.8 2m2317 .8c-1.1.4-2.3 1.5-2.7 2.4-.5 1-.1 4.7.7 8.5.8 3.7 2.2 9.9 3.1 13.7.8 3.9 3.3 15.5 5.5 26s5.5 26.7 7.4 36 4.5 23.1 5.9 30.5 3.5 20.3 4.6 28.5c1.1 8.3 2.4 18.2 3 22 .5 3.8 1.1 9.7 1.4 13s1 10.7 1.6 16.5c.5 5.8 1.8 22.7 2.7 37.5 1.3 20.8 1.6 42.1 1.6 92.5 0 48-.5 73.1-1.7 94-.9 15.7-2.3 35.5-3.1 44s-2.2 20.7-3 27c-.9 6.3-2.1 14.4-2.7 18s-2.4 12.6-4 20-4.3 18.7-5.9 25c-1.7 6.3-5 18-7.4 26s-5.7 19-7.4 24.5c-1.8 5.5-6 18.3-9.5 28.5s-11 30.4-16.6 45-12 31.8-14.1 38.3c-2.3 6.8-3.7 12.7-3.4 14.2s1.8 3.1 3.8 4.2c2.1 1 7.3 1.9 15.2 2.4 6.6.4 12.4.6 13 .4s5.7-.6 11.5-.9 15.2-1.3 21-2.1c5.8-.9 15.7-2.7 22-4.2 6.3-1.4 16.4-4.6 22.5-7 6.1-2.5 16.8-7.5 23.8-11.1 7-3.7 16.7-9.5 21.5-12.9 4.8-3.5 12.2-9.8 16.6-14 4.3-4.3 11.5-12.3 15.9-17.8s10.1-13.2 12.7-17 6.6-10.8 8.9-15.5 5.3-12.1 6.6-16.5 3.1-11.6 3.9-16 2.2-14.7 3-23c.9-8.2 2.2-33.7 3-56.5.9-22.8 2-62.7 2.6-88.5s1-90 1-142.5-.5-105.4-1-117.5c-.6-12.1-1.8-27-2.6-33-.9-6-2.2-13.5-3-16.5-.9-3-2.7-8.7-4.1-12.5s-4.3-10.2-6.4-14-5.7-9.8-8.1-13.2-7.4-9.8-11.3-14.3c-3.8-4.5-11.3-11.9-16.5-16.4s-13.3-11.2-18-14.7c-4.7-3.6-11.6-8.6-15.5-11.1-3.8-2.5-9.2-5.7-12-7.1-2.7-1.4-9.1-4.1-14-6s-12.1-4.6-16-6c-3.8-1.4-10.8-3.7-15.5-5.1s-11.6-3.2-15.5-4c-3.8-.8-10.6-1.7-15-2s-8.9-.2-10 .3"/><path id="Path 3" class="s1" d="M1395 178.1c-9.6.4-23.1 1.5-30 2.4s-16.8 2.7-22 4.1c-5.2 1.3-13.1 4.1-17.5 6.2s-10.7 5.8-14 8.1c-3.3 2.4-8.4 6.7-11.3 9.5-3 2.8-8.2 8.7-11.7 13.1s-7.7 10.9-9.4 14.5-4.5 11.9-6.1 18.5c-1.7 6.6-4 17.9-5 25-1.2 7.9-2 18.5-2 27 0 7.7.7 19.4 1.6 26 .8 6.6 2.6 16.7 4 22.5s3.4 13 4.5 16 3.9 8.6 6.2 12.5c2.2 3.9 8.2 11.2 13.1 16.4 5.7 5.9 12.6 11.6 18.6 15.6 5.2 3.4 12.7 7.4 16.5 8.7 3.8 1.4 9.9 3.3 13.5 4.2 3.6.8 9.4 2 13 2.6s13 1.8 21 2.7c11.9 1.3 31.1 1.7 108.5 2l94 .5c12.4-13 19-20.1 22.6-24.2 3.7-4.1 9.1-10.9 12.1-15 2.9-4.1 6.8-10.4 8.5-14 1.8-3.6 4.2-10.1 5.5-14.5 2.1-7.7 2.2-9.9 2.5-55.2l.3-47.3c-23.3 0-37.8.5-47.3 1-9.4.6-20.1 1.8-23.7 2.7-3.6.8-8.1 2.3-10 3.3s-5.5 4-8 6.7c-2.8 3.1-7.2 10.4-11.7 19.4-3.9 7.9-8.5 17.8-10.2 21.9-1.6 4.1-3.6 9.8-4.2 12.5-1.1 4.4-1.1 5.4.4 7.8.9 1.5 3.3 3.4 5.2 4.2s5.1 1.5 7 1.5 5.3.9 7.5 2 4.5 2.9 5 4c.6 1.2.6 2.5.1 3.3-.5.6-3 1.8-5.7 2.6-3.4 1-12.1 1.5-28.4 1.7-12.9.2-29.8 0-37.5-.6-7.7-.5-22.1-1.4-32-2s-23.8-1.7-31-2.5-16.4-2.1-20.5-2.9-10-2.1-13-3c-3-.8-7.7-3-10.5-4.8-2.8-1.9-6.4-5.5-8.2-8.3-1.8-2.7-4.5-8.8-6-13.5-1.9-6.1-2.6-10.6-2.6-16 0-4.1.8-10.4 1.8-14s3.4-9.6 5.4-13.4c2.8-5.4 4.7-7.7 8.1-9.8 2.5-1.6 7.4-3.7 11-4.8 3.6-1 11.2-2.6 17-3.4s15.9-2 22.5-2.6c6.6-.5 22.8-1.4 36-2 13.2-.5 26.7-1.2 30-1.5 3.3-.2 15.7-.7 27.5-1s24-.8 27-1c3-.3 24.4-1.2 47.5-2s43.9-1.9 46.3-2.3l4.3-.7c-1-6.2-2.3-11.1-3.5-15-1.3-4.2-4.4-10.4-7.8-15.5-3.1-4.7-8.3-11.2-11.5-14.5s-7.8-7.6-10.3-9.6-6.5-4.7-9-6.1-6.8-3.2-9.5-4.1c-2.8-.9-8.6-2.3-13-3.2-4.4-.8-14.3-1.9-22-2.5-7.7-.5-40.5-.9-73-.8-32.5 0-66.9.5-76.5.9m56.5 472.1c-37.4.4-79.5 1.1-93.5 1.7s-33.6 1.5-43.5 2.1c-9.9.5-23.8 1.4-31 2s-20.9 1.7-30.5 2.6c-9.6.8-25.4 2.4-35 3.5s-22.5 2.6-28.5 3.4-15.7 2.1-21.5 3-13 2-16 2.5-9.1 1.6-13.5 2.4-10.9 2.1-14.5 2.9-11.9 2.7-18.5 4.2-21.7 5.2-33.5 8.2-30.5 7.9-41.5 10.9c-11 3.1-21.4 6-23 6.5s-8.2 2.4-14.5 4.3-15.8 4.8-21 6.4c-5.2 1.7-14.5 4.8-20.5 7s-14.6 5.3-19 7c-4.4 1.6-13.4 5.1-20 7.7s-20.3 8.3-30.5 12.5c-10.2 4.3-21 8.9-24 10.3s-10.7 4.8-17 7.7-17.8 8.4-25.5 12.3-21 11-29.5 15.7c-8.5 4.8-23.4 13.5-33 19.4-9.6 6-24.3 15.4-32.5 20.9-8.3 5.5-20 13.7-26 18.1-6 4.5-16.4 12.6-23 18-6.6 5.5-16.5 14-22 19-5.5 4.9-18.6 17.6-29.1 28.1-10.6 10.4-23.1 23.5-27.9 29s-14.5 17.6-21.5 27-17.7 24.4-23.7 33.5-16.3 25.3-22.7 36c-6.5 10.7-14.6 25.3-18.1 32.5-3.4 7.2-9.1 19.7-12.5 28-3.4 8.2-7 17-8 19.5s-3.9 10.3-6.5 17.5c-2.5 7.2-7.1 20.7-10.1 30s-6.8 22-8.4 28c-1.5 6-3.3 13.5-3.9 16.5s-1.9 9.8-3 15-3.2 16.2-4.6 24.5c-1.4 8.2-3.4 21.3-4.5 29s-2.4 17.2-2.9 21c-.6 3.8-1.2 9.5-1.5 12.5l-1.1 11c-.4 3-.8 6.8-1 8.5s-.6 9.5-.9 17.5c-.4 8-.9 18.3-1.2 23-.2 4.7 0 20.9.6 36 .5 15.1 1.2 28.4 1.4 29.5s.7 4.7 1 8 .9 8.2 1.2 11c.3 2.7 1.2 8.6 2 13s2.8 13.3 4.4 19.7c1.7 6.5 5.7 20 9.1 30 3.4 10.1 8.5 24.4 11.4 31.8 3 7.4 6.5 16.2 8 19.5 1.4 3.3 6 12.7 10.2 21 4.1 8.2 9.1 17.7 11 21 2 3.3 7.4 11.6 11.9 18.5 4.6 6.9 13.1 18.6 19.1 26 5.9 7.4 19.1 21.9 29.3 32.1s23.2 22.4 29 27.1 16.6 13 24 18.5 19.4 13.9 26.5 18.6c7.1 4.6 18.4 11.6 25 15.4s17.2 9.4 23.5 12.5 14.2 6.8 17.5 8.3 11.2 4.9 17.5 7.5 20.5 8.2 31.5 12.3 27.9 10 37.5 13.2c9.6 3.1 22 6.7 27.5 8s13.8 3.1 18.5 4c4.7.8 15.2 2.4 23.5 3.5 8.2 1 18.8 2.2 23.5 2.5 4.7.4 10.1.8 12 1.1 1.9.2 10.9.7 20 1.1s36.3.8 60.5.8 51.7-.3 61-.7c9.3-.5 26.7-1.5 38.5-2.3s27.6-1.9 35-2.5c7.4-.5 17.8-1.4 23-2 5.2-.5 16.2-1.7 24.5-2.5 8.2-.8 18.4-2 22.5-2.5s17-2.3 28.5-3.9 26.6-3.6 33.5-4.5c6.9-.8 16.5-2 21.5-2.6 5-.5 16.2-1.6 25-2.4s20.3-1.8 25.5-2.1 11.3-.8 13.5-1 7.6-.6 12-1c4.4-.3 17.2-1 28.5-1.5 11.3-.6 37.8-1.5 59-2.1s57.1-.8 80-.5c22.8.4 53.7 1.3 68.5 2.2 14.8.8 35.5 2.4 46 3.4 10.5 1.1 23 2.4 28 3s16.9 2.2 26.5 3.6 26.5 4.1 37.5 6c11 1.8 26.3 4.5 34 5.8 7.7 1.4 21.7 3.6 31 5s18.6 2.8 20.5 3.1c1.9.2 5.1.7 7 .9 1.9.3 9.1 1.2 16 2 6.9.9 20.4 2.1 30 2.7 9.6.7 28.5 1.2 42 1.2s34.4-.6 46.5-1.2 29-1.8 37.5-2.6c8.5-.9 18.9-2 23-2.5s14.5-1.9 23-3.1c8.5-1.1 22.5-3.1 31-4.5s22-3.8 30-5.4 17.4-3.6 21-4.5 10.1-2.8 14.5-4.2c4.4-1.3 15.9-5.1 25.5-8.3s25.8-8.9 36-12.8c10.2-3.8 25-9.8 33-13.2s18.8-8.4 24-11.2c5.2-2.7 15.8-9.2 23.5-14.2 7.7-5.1 18.9-13 25-17.6 6.1-4.5 16.8-13 24-18.9 7.2-5.8 21.6-19.1 32.1-29.6 10.5-10.4 23.3-24.2 28.6-30.5 5.2-6.3 13.5-16.9 18.5-23.5 4.9-6.6 11.5-15.6 14.5-20 3.1-4.4 8.2-12.3 11.3-17.5 3.2-5.2 8.3-14.7 11.5-21s8.2-17.3 11.2-24.5c3.1-7.2 7.8-19.3 10.6-27 2.7-7.7 6.2-17.6 7.7-22 1.4-4.4 3.7-12 5-17s3.2-14.2 4.3-20.5c1.2-6.3 2.9-19.4 3.8-29 1.4-13.5 1.7-27 1.7-59.5 0-29.7-.5-48.7-1.7-65-.9-12.7-2.6-30-3.7-38.5s-2.4-18.4-3-22c-.5-3.6-2-11.9-3.4-18.5-1.3-6.6-4-17.8-5.9-25s-4.1-15.5-4.9-18.5c-.9-3-4.4-14.3-8-25-3.5-10.7-7.6-22.4-9-26s-4.6-11.7-7-18c-2.5-6.3-7.7-18.9-11.5-28-3.9-9.1-8.7-20.1-10.7-24.5-2.1-4.4-7.5-15.7-12.2-25-4.6-9.3-12.7-23.3-17.8-31s-15.1-21.6-22.1-31-17-22.4-22.3-29-14.8-18.1-21.2-25.5c-6.3-7.4-17.8-19.4-25.5-26.7-7.6-7.2-19.5-18-26.4-23.8-6.9-5.9-16.8-14.2-22-18.3-5.2-4.2-12.4-9.9-16-12.8-3.6-2.8-13-9.8-21-15.5s-21.5-14.7-30-20c-8.5-5.2-20.9-12.7-27.5-16.6-6.6-3.8-16.7-9.6-22.5-12.9-5.8-3.2-14.1-7.7-18.5-10.1s-17.2-9-28.5-14.6c-11.3-5.7-25.9-12.6-32.5-15.4s-18.5-7.7-26.5-10.8-18.1-7.1-22.5-8.7c-4.4-1.7-9.1-3.4-10.5-3.8-1.4-.5-7-2.5-12.5-4.5s-18.1-6.3-28-9.6-20-6.6-22.5-7.4-7.7-2.3-11.5-3.4-10.2-2.9-14-4-15.1-4-25-6.5c-9.9-2.4-23.2-5.7-29.5-7.1l-18-4c-3.6-.8-9.7-2.1-13.5-2.9-3.8-.9-13.3-2.7-21-4.1-7.7-1.5-17.6-3.3-22-4-4.4-.8-12.5-2.1-18-3s-12.7-2-16-2.5-11.2-1.6-17.5-2.5-13.3-1.8-15.5-2.1c-2.2-.2-7.2-.9-11-1.4s-11.5-1.4-17-2-13.8-1.5-18.5-2.1c-4.7-.5-16.2-1.6-25.5-2.4s-25.8-2-36.5-2.5c-10.7-.6-29.6-1.4-42-1.8s-53.1-.4-90.5 0"/><path id="Path 4" class="s0" d="M1483.9 708.4c-.2.3-24.3.6-53.4.7-29.2.2-60.4.7-69.5 1.1s-22.6 1.2-30 1.8-19.1 1.8-26 2.6-19.5 2.3-28 3.4-19.1 2.4-23.5 3-15.9 2.2-25.5 3.6c-9.6 1.3-22 3.1-27.5 4-5.5.8-18.3 2.9-28.5 4.5-10.2 1.7-22.8 3.9-28 4.9s-13.8 2.8-19 4c-5.2 1.1-12.7 2.8-16.5 3.7-3.9.9-16.7 4-28.5 6.9s-29.8 7.6-40 10.4c-10.2 2.9-19.9 5.5-21.5 6-1.7.5-5.4 1.6-8.3 2.4-2.8.9-7.3 2.2-10 3-2.6.8-10.3 3.2-17.2 5.4-6.9 2.3-18.1 6.1-25 8.5-6.9 2.5-18.6 6.8-26 9.6s-14.4 5.5-15.5 6.1c-1.1.5-11.9 5-24 10s-32.8 14.5-46 21-30.5 15.7-38.5 20.5-21.7 13.5-30.5 19.3-19.8 13.2-24.5 16.5-14.1 10.1-21 15.1-16.1 11.9-20.5 15.5-12.5 10.4-18 15.2-18.8 17.6-29.5 28.6c-10.8 10.9-22.8 23.4-26.6 27.8-3.9 4.4-10.9 12.7-15.5 18.5s-13.9 18.6-20.5 28.5-15.2 23.2-19.1 29.5c-3.8 6.3-9.9 16.7-13.6 23-3.6 6.3-8.3 15.3-10.5 20s-4.7 10.3-5.7 12.5c-.9 2.2-3.2 8.2-5.1 13.3-1.9 5-3.4 9.7-3.4 10.2s.7 1 1.5 1 5.5-5.5 10.3-12.2c4.9-6.8 12.4-17.5 16.7-23.8s11.3-16.2 15.4-22 11.9-15.9 17.2-22.5 14.3-17.4 19.9-24c5.7-6.6 18-20.3 27.5-30.5s23.3-24 30.7-30.6c7.3-6.7 17.6-15.7 22.8-19.9 5.2-4.3 15.1-12.1 22-17.5 6.9-5.3 18.8-14.2 26.5-19.7 7.7-5.4 18.5-12.8 24-16.4s12.7-8.1 16-10.1 9.8-5.7 14.5-8.3c4.7-2.5 21.7-11.1 37.7-19.1 16.1-7.9 29.5-14.4 29.8-14.4s4.2-1.8 8.7-3.9c4.6-2.1 15.9-7.1 25.3-11.1 9.3-4 20.6-8.6 25-10.2s11.1-4 15-5.3c3.8-1.2 12.8-4.2 20-6.5 7.1-2.3 20-6.3 28.5-9s24-7.3 34.5-10.3c10.4-3.1 23.5-6.7 29-8.2 5.5-1.4 14.3-3.8 19.5-5.1 5.2-1.4 18-4.3 28.5-6.5 10.4-2.2 23.3-4.8 28.5-5.9 5.2-1 20.1-3.9 33-6.4s31.6-5.9 41.5-7.5c9.9-1.7 20.9-3.5 24.5-4.1 3.6-.5 13.5-1.7 22-2.5s27.9-2.1 43-3c15.1-.8 39.9-2 55-2.6 15.6-.7 60.4-1.2 103.5-1.2 44.9 0 85.8.4 100 1.2 13.2.6 33.9 1.8 46 2.7 12.1.8 28.5 2.2 36.5 3s19.7 2.2 26 3 16.2 2.1 22 3c5.8.8 15.7 2.4 22 3.5s20.3 3.8 31 5.9 27.8 5.7 38 7.9 23.4 5.2 29.5 6.6c6 1.4 15.9 3.7 22 5.1 6 1.5 18.9 4.6 28.5 7.1 9.6 2.4 20.6 5.3 24.5 6.3 3.8 1 13.5 3.9 21.5 6.4s21.7 7 30.5 10.1 17.1 6 18.5 6.5c1.4.4 9 3.3 17 6.3 8 3.1 22.4 8.8 32 12.7s24 10.1 32 13.8c8 3.6 20.6 9.6 28 13.3s20.2 10.5 28.5 15.2c8.2 4.6 23.3 13.5 33.5 19.7s25.9 16.2 35 22.3 23.2 16.1 31.5 22.3c8.2 6.1 21.3 16.5 29 22.9s20.7 17.6 28.8 24.8c8.2 7.3 16.7 15.5 18.8 18.2 2.2 2.8 4 5.5 4 6s1.6 3.3 3.6 6c2.1 2.8 6.4 8.4 9.7 12.5s12.8 15.2 21.1 24.5c8.4 9.3 17.4 19.5 20.2 22.5s5.5 5.1 6 4.7c.4-.4-.1-2.5-1.2-4.5s-5.1-8.9-8.9-15.2-9.8-16-13.5-21.5-9.8-14.5-13.7-20-12-16.1-17.9-23.5-13.8-16.9-17.4-21-9.5-10.6-13.1-14.5-10.3-10.8-15-15.5-12.8-12.6-18-17.4c-5.2-4.9-15.4-13.9-22.5-20-7.2-6.1-16.6-14.1-21-17.7s-14.5-11.4-22.5-17.4-19.9-14.4-26.5-18.7c-7.1-4.7-25.4-14.6-44.5-24.1-17.9-9-41.5-20.3-52.5-25.1-11-4.9-23.8-10.4-28.5-12.3s-13.7-5.4-20-7.8-14.9-5.6-19-7c-4.1-1.5-17.4-6-29.5-10s-28.8-9.4-37-11.9c-8.3-2.4-21.5-6.3-29.5-8.4-8-2.2-20.6-5.4-28-7.1-7.4-1.8-17.1-4.1-21.5-5.1s-17.5-3.9-29-6.4c-11.6-2.5-26.9-5.7-34-7.2-7.2-1.4-14.1-2.9-15.5-3.1-1.4-.3-9.5-1.8-18-3.4-8.5-1.5-23.6-4-33.5-5.4-9.9-1.3-22.1-2.9-27-3.5-5-.6-15.8-1.7-24-2.6-8.3-.8-20-1.9-26-2.4-6.1-.6-19.8-1.7-30.5-2.5s-26.7-1.9-35.5-2.4c-8.8-.6-25.2-1.3-36.5-1.7-11.3-.3-20.8-.8-21.1-1-.4-.2-.8-.2-1 0M989 1227.1c-6.3.4-14.4 1.3-18 1.9-3.6.7-10.8 2.3-16 3.7-5.2 1.3-13.6 4-18.5 5.9-5 2-12.4 5.2-16.5 7.3s-9.8 5.2-12.5 6.8c-2.8 1.6-8.2 4.9-12 7.3-3.9 2.4-10.4 7-14.5 10.1-4.1 3.2-14.1 12.4-22.1 20.6-8 8.1-17.3 18-20.6 21.8s-8.1 9.9-10.8 13.5c-2.6 3.6-6.5 10-8.6 14.2-2.1 4.3-5 11.7-6.4 16.5-1.6 5.5-2.5 11.2-2.5 15.3 0 3.6.7 9 1.5 12s2.6 7.9 4 10.7c1.4 2.9 4.6 7.6 7.2 10.4 2.7 2.8 7.5 6.6 10.8 8.4 3.3 1.9 8.9 4.1 12.5 5 6.1 1.5 6.8 1.5 11.5-.1 2.7-1 9.3-4.6 14.5-8.2 5.2-3.5 13.1-9.4 17.5-13.1 4.4-3.6 12.1-10.4 17.1-15.1 4.9-4.7 13.3-12 18.5-16.2s15-11.4 21.9-16 16.3-10.2 21-12.6c4.7-2.3 12.1-5.1 16.5-6.2 4.4-1 12.5-2.3 18-2.9 5.5-.5 13.4-1.2 17.5-1.6 4.3-.3 12.6.1 19.5.9 6.6.8 16.3 2.6 21.5 4.1s14.4 4.7 20.5 7.2c6 2.5 13 5.9 15.5 7.6s7.4 5.3 11 8.1 11.2 9.1 17 14.1c5.8 4.9 14.5 12.8 19.5 17.5 4.9 4.7 11.7 10.4 15 12.6 3.3 2.3 8.7 5.5 12 7.1 3.3 1.7 8.2 3.5 11 4.1 3.4.8 7.2.8 12 .1 3.8-.5 9-1.7 11.5-2.6s6.9-3.2 9.7-5c3.8-2.4 6-4.6 7.7-8.1 1.3-2.6 3.2-7.4 4.2-10.7 1.4-4.5 1.9-9 1.9-18 0-10.2-.3-12.9-2.3-18-1.3-3.3-3.3-7.8-4.4-10s-4.1-7.2-6.6-11-8.2-11.5-12.7-17-12.2-13.6-17.1-18-12.3-10.7-16.4-14.1c-4.1-3.3-11.3-8.7-16-12s-11.2-7.7-14.5-9.6c-3.3-2-8.3-4.7-11-6-2.8-1.4-8.4-3.6-12.5-5s-9.8-3.3-12.5-4.1c-2.8-.8-10.6-2.9-17.5-4.5-6.9-1.7-16.8-3.8-22-4.7s-12-2-15-2.6c-3-.5-12.9-1.3-22-1.9-9.1-.5-18.8-.9-21.5-.8-2.8 0-10.2.4-16.5.9m852 0c-6.9.4-15.4 1.5-19 2.4s-9.2 2.5-12.5 3.7c-3.3 1.1-10.3 3.8-15.5 6s-13.3 6-18 8.3c-4.7 2.4-11.7 6.6-15.5 9.3-3.9 2.7-11.3 8.6-16.5 13-5.2 4.5-13.1 11.6-17.6 15.9-4.4 4.3-11.5 11.6-15.8 16.3s-10.4 11.9-13.5 16c-3.2 4.1-7.4 10.2-9.4 13.5s-5.1 9.6-6.9 14c-2.4 6.2-3.2 10-3.6 17-.3 6.2.1 11.4 1.2 16.5.9 4.1 3 10.3 4.6 13.7 2.1 4.4 4.3 7.2 7.2 9.3 2.4 1.7 7 3.9 10.3 5s9.5 2.4 13.7 3c5.6.7 9.3.7 13-.1 2.9-.7 8-2.4 11.3-4 3.3-1.5 9.4-5 13.5-7.7s10-7.2 13.1-9.8c3.1-2.7 11-9.9 17.5-15.9 6.5-6.1 15-13.3 18.9-16.2 3.8-2.8 10.8-7.5 15.5-10.5 4.7-2.9 12.8-7.2 18-9.5s12.1-4.9 15.2-5.8c3.2-.8 11-2.2 17.3-3s14.8-1.5 18.7-1.5c4 0 12.5.7 18.8 1.5s14.4 2.4 18 3.6c3.6 1.1 10.8 4.2 16 6.9 5.2 2.6 12.6 6.6 16.5 9 3.8 2.3 10.6 6.7 15 9.8 4.4 3 14 10.7 21.4 17.1s18 15.2 23.5 19.6c5.6 4.4 13.5 10.2 17.6 12.9s9.5 5.6 12 6.4c2.9.8 7 1.2 11.5.9 3.8-.3 8.8-1.1 11-1.8 2.5-.7 5.9-3.1 9-6.3 2.7-2.8 6.9-8.7 9.2-13.1s4.8-10.7 5.7-14 1.6-8.7 1.5-12c0-3.3-.6-8.5-1.3-11.5s-2.1-7.8-3.1-10.5c-1.1-2.8-3.2-7.5-4.9-10.5-1.6-3-4.3-7.8-6.1-10.5-1.7-2.8-6.5-9-10.7-14-4.1-5-11.7-13-16.9-17.8-5.2-4.9-12.6-11.3-16.4-14.2-3.9-3-13.3-9.3-21-14-7.7-4.8-20.3-11.8-28-15.6-10.1-5-17.2-7.7-25.5-9.8-6.3-1.6-16.9-3.9-23.5-5s-17.2-2.7-23.5-3.6c-6.3-.8-19.6-2-29.5-2.5s-20.5-.9-23.5-.8c-3 0-11.1.4-18 .9"/></g></svg>